Coordinates
version=1
nRows=15
nColumns=46
inDegrees=yes

Units are S.I. units (second, meters, Newtons, ...)
Angles are in degrees.

endheader
time	pelvis_tilt	pelvis_list	pelvis_rotation	pelvis_tx	pelvis_ty	pelvis_tz	bb_angle	bb_tx	bb_ty	bb_tz	hip_flexion_r	hip_adduction_r	hip_rotation_r	knee_angle_r	knee_angle_r_beta	ankle_angle_r	subtalar_angle_r	mtp_angle_r	crank_angle_r	hip_flexion_l	hip_adduction_l	hip_rotation_l	knee_angle_l	knee_angle_l_beta	ankle_angle_l	subtalar_angle_l	mtp_angle_l	crank_angle_l	lumbar_extension	lumbar_bending	lumbar_rotation	arm_flex_r	arm_add_r	arm_rot_r	elbow_flex_r	pro_sup_r	wrist_flex_r	wrist_dev_r	arm_flex_l	arm_add_l	arm_rot_l	elbow_flex_l	pro_sup_l	wrist_flex_l	wrist_dev_l
      7.50500000	    -16.06191442	      2.93765385	      4.79741761	      0.07613093	      1.11119290	     -0.25941561	      0.00000000	      0.50000000	      0.00000000	      0.25000000	     45.63044038	     -7.57820518	      0.68931934	     31.31394120	      0.54653138	    -14.20329484	    -10.70616673	      0.00000000	      0.00000000	     84.69975027	      1.53423650	      5.69720740	    112.13673366	      1.95715521	    -13.61150117	     -9.62925696	      0.00000000	      0.00000000	    -64.54708942	     -3.56000715	     -9.24425956	     89.48044328	    -21.62573392	     30.05480622	     59.92727124	     33.68092863	      0.00000000	      0.00000000	     89.64923519	    -24.48725303	     32.23632426	     73.73275352	     37.11773575	      0.00000000	      0.00000000
      7.51000000	    -16.28468865	      3.23662526	      5.23727067	      0.07629833	      1.11137143	     -0.25877036	      0.00000000	      0.50000000	      0.00000000	      0.25000000	     44.65852932	     -8.23935258	     -0.04232201	     30.09347365	      0.52523020	    -14.94930723	     -9.66656373	      0.00000000	      0.00000000	     86.15565994	      1.91399286	      5.45507218	    112.88997732	      1.97030180	    -13.06093746	     -9.41128371	      0.00000000	      0.00000000	    -64.42531700	     -3.60180986	     -9.59495858	     89.46313014	    -21.82209804	     30.09695519	     59.66212386	     33.63450164	      0.00000000	      0.00000000	     89.65632509	    -24.14044416	     32.27717514	     73.80731291	     36.97105220	      0.00000000	      0.00000000
      7.51500000	    -16.48128103	      3.51288933	      5.70492154	      0.07633217	      1.11157121	     -0.25825545	      0.00000000	      0.50000000	      0.00000000	      0.25000000	     43.74195069	     -8.89528228	     -0.81992728	     29.10855958	      0.50804021	    -15.53479739	     -8.57654276	      0.00000000	      0.00000000	     87.54617807	      2.36098364	      5.24487021	    113.48217838	      1.98063766	    -12.57775180	     -9.05623241	      0.00000000	      0.00000000	    -64.31550795	     -3.61233708	     -9.88598056	     89.44744019	    -22.08328535	     30.14710077	     59.34483841	     33.58803131	      0.00000000	      0.00000000	     89.66444027	    -23.72618006	     32.30226615	     73.87199245	     36.75033197	      0.00000000	      0.00000000
      7.52000000	    -16.57531695	      3.67839133	      6.21294295	      0.07621917	      1.11196339	     -0.25756183	      0.00000000	      0.50000000	      0.00000000	      0.25000000	     42.75070376	     -9.41623594	     -1.66549815	     28.26152816	      0.49325672	    -16.11257633	     -7.80549993	      0.00000000	      0.00000000	     88.81362784	      2.80388622	      5.12654267	    113.91115541	      1.98812472	    -12.27203510	     -8.91566968	      0.00000000	      0.00000000	    -64.30813907	     -3.54233221	    -10.08316911	     89.43633029	    -22.31978256	     30.13228781	     59.10531111	     33.55289343	      0.00000000	      0.00000000	     89.67389292	    -23.37581845	     32.29270363	     74.00323584	     36.59220505	      0.00000000	      0.00000000
      7.52500000	    -16.80784492	      3.82387303	      6.53692334	      0.07608126	      1.11209723	     -0.25698912	      0.00000000	      0.50000000	      0.00000000	      0.25000000	     42.03662774	     -9.76587433	     -2.17230425	     27.61556471	      0.48198253	    -16.60633286	     -7.23480974	      0.00000000	      0.00000000	     90.18231174	      3.06615548	      4.92875068	    114.24027906	      1.99386901	    -11.99114174	     -8.92817973	      0.00000000	      0.00000000	    -64.18570911	     -3.54159945	    -10.26776916	     89.41501875	    -22.50340991	     30.07865421	     59.00349705	     33.53598963	      0.00000000	      0.00000000	     89.68149882	    -23.16204474	     32.27432221	     74.15310836	     36.54112506	      0.00000000	      0.00000000
      7.53000000	    -16.82169363	      3.99520356	      6.67289496	      0.07583330	      1.11217670	     -0.25598454	      0.00000000	      0.50000000	      0.00000000	      0.25000000	     41.32908331	     -9.94178588	     -2.42977797	     27.48480577	      0.47970036	    -16.73056238	     -7.13407868	      0.00000000	      0.00000000	     91.31316072	      3.05669521	      4.67878774	    114.51715207	      1.99870135	    -11.90122711	     -8.93275246	      0.00000000	      0.00000000	    -64.24628855	     -3.66842908	    -10.37016237	     89.39258365	    -22.57093784	     30.04191550	     58.97929245	     33.52993148	      0.00000000	      0.00000000	     89.69199594	    -23.09513298	     32.25650993	     74.21020839	     36.53424540	      0.00000000	      0.00000000
      7.53500000	    -17.18542237	      4.11241922	      7.30666760	      0.07553810	      1.11247873	     -0.25614562	      0.00000000	      0.50000000	      0.00000000	      0.25000000	     40.80830359	    -10.50560649	     -3.27939078	     27.05779418	      0.47224760	    -17.29628951	     -6.56921126	      0.00000000	      0.00000000	     92.62448904	      3.72780002	      4.44293245	    114.42730742	      1.99713327	    -11.67685544	     -9.13426056	      0.00000000	      0.00000000	    -64.05229645	     -3.43581428	    -10.52190687	     89.39170378	    -23.01516487	     29.91747125	     58.73609853	     33.49021574	      0.00000000	      0.00000000	     89.69192068	    -22.67122065	     32.23515815	     74.67670449	     36.50363111	      0.00000000	      0.00000000
      7.54000000	    -17.32110915	      4.23995546	      7.67469621	      0.07511795	      1.11276374	     -0.25597554	      0.00000000	      0.50000000	      0.00000000	      0.25000000	     40.29280626	    -10.82865462	     -3.70613132	     27.12269756	      0.47338037	    -17.34685141	     -6.45558531	      0.00000000	      0.00000000	     93.66083135	      4.04644950	      4.11266909	    114.31230881	      1.99512616	    -11.54473884	     -9.48127430	      0.00000000	      0.00000000	    -64.04876867	     -3.36042696	    -10.59429001	     89.38226553	    -23.36130940	     29.79976367	     58.65420328	     33.47815361	      0.00000000	      0.00000000	     89.69714537	    -22.38634370	     32.18147635	     75.03171919	     36.46715465	      0.00000000	      0.00000000
      7.54500000	    -17.46922366	      4.45564901	      7.98076695	      0.07446205	      1.11295948	     -0.25592202	      0.00000000	      0.50000000	      0.00000000	      0.25000000	     39.98176264	    -11.19567359	     -3.98884879	     27.49582787	      0.47989273	    -17.41149073	     -6.51424744	      0.00000000	      0.00000000	     94.58354283	      4.33269148	      3.65479731	    114.06909752	      1.99088133	    -11.24279201	     -9.90149568	      0.00000000	      0.00000000	    -64.08657976	     -3.34990000	    -10.66029669	     89.39868812	    -23.74935103	     29.63144723	     58.65124061	     33.47654894	      0.00000000	      0.00000000	     89.70034212	    -22.11394165	     32.11315330	     75.39597646	     36.43033649	      0.00000000	      0.00000000
      7.55000000	    -17.64356880	      4.74740331	      8.26540728	      0.07362580	      1.11326850	     -0.25598355	      0.00000000	      0.50000000	      0.00000000	      0.25000000	     39.83602811	    -11.62088090	     -4.05963828	     28.14472588	      0.49121813	    -17.18992805	     -6.47472265	      0.00000000	      0.00000000	     95.35970954	      4.60462847	      3.04001009	    113.61447395	      1.98294665	    -11.07808883	    -10.63738361	      0.00000000	      0.00000000	    -64.19899888	     -3.40822993	    -10.50838776	     89.36507508	    -24.87337774	     29.46202736	     59.55515591	     33.71868915	      0.00000000	      0.00000000	     89.70831286	    -21.32916336	     31.84988969	     75.82501946	     35.70757479	      0.00000000	      0.00000000
      7.55500000	    -17.78737996	      4.92116548	      8.50022222	      0.07275767	      1.11362760	     -0.25592848	      0.00000000	      0.50000000	      0.00000000	      0.25000000	     39.75366507	    -11.85153179	     -4.07378192	     28.92128094	      0.50477158	    -17.12341072	     -7.02746690	      0.00000000	      0.00000000	     95.93644775	      4.79797359	      2.60602162	    113.07911234	      1.97360283	    -10.25242159	    -10.91959275	      0.00000000	      0.00000000	    -64.22990085	     -3.36861387	    -10.55777937	     89.38428774	    -25.12183429	     29.34005756	     59.54086433	     33.71616133	      0.00000000	      0.00000000	     89.71289039	    -21.23847348	     31.76831364	     76.00059660	     35.65401583	      0.00000000	      0.00000000
      7.56000000	    -18.10091136	      5.34047373	      8.72112407	      0.07167420	      1.11390010	     -0.25592250	      0.00000000	      0.50000000	      0.00000000	      0.25000000	     40.06970864	    -12.31127038	     -3.79379050	     30.07045201	      0.52482840	    -16.98199204	     -7.63756217	      0.00000000	      0.00000000	     96.45315343	      4.97489397	      1.90351692	    112.31807017	      1.96032013	     -9.37853883	    -11.09881473	      0.00000000	      0.00000000	    -64.22354251	     -3.53706834	    -10.79582715	     89.37815853	    -25.62724833	     29.11298188	     59.85432851	     33.77802714	      0.00000000	      0.00000000	     89.71822977	    -20.90207826	     31.54526812	     76.38675019	     35.49480064	      0.00000000	      0.00000000
      7.56500000	    -18.23013242	      5.46269033	      8.91356950	      0.07069718	      1.11432771	     -0.25587214	      0.00000000	      0.50000000	      0.00000000	      0.25000000	     40.25634792	    -12.47482993	     -3.70282880	     31.34232137	      0.54702670	    -16.85348763	     -8.37213818	      0.00000000	      0.00000000	     96.64914525	      5.13087451	      1.52616793	    111.52929783	      1.94655346	     -8.06545463	    -11.49984308	      0.00000000	      0.00000000	    -64.29985562	     -3.46677911	    -10.80344509	     89.39761129	    -25.89587252	     28.97369113	     60.00771139	     33.80280715	      0.00000000	      0.00000000	     89.72365101	    -20.80545625	     31.41390894	     76.58031164	     35.44153047	      0.00000000	      0.00000000
      7.57000000	    -18.56610310	      5.92955177	      9.09208770	      0.06944567	      1.11465012	     -0.25599160	      0.00000000	      0.50000000	      0.00000000	      0.25000000	     40.91171733	    -12.96774293	     -3.20593516	     33.01399882	      0.57620298	    -16.68502015	     -9.19076095	      0.00000000	      0.00000000	     96.77616453	      5.34009532	      0.82870417	    110.45133181	      1.92773940	     -6.64461655	    -11.54092786	      0.00000000	      0.00000000	    -64.32152602	     -3.63729338	    -11.04956497	     89.38226798	    -26.43404927	     28.69930279	     60.52547899	     33.88948594	      0.00000000	      0.00000000	     89.72627698	    -20.43816787	     31.17550278	     76.99367044	     35.33022628	      0.00000000	      0.00000000
      7.57500000	    -18.80210331	      6.29253154	      9.19999742	      0.06838715	      1.11515503	     -0.25601977	      0.00000000	      0.50000000	      0.00000000	      0.25000000	     41.55698365	    -13.33587555	     -2.78982005	     34.81433938	      0.60762485	    -16.52724510	     -9.87685299	      0.00000000	      0.00000000	     96.62267333	      5.45916433	      0.25560473	    109.28065395	      1.90730722	     -4.93473743	    -11.64405391	      0.00000000	      0.00000000	    -64.44241209	     -3.76982624	    -11.14753567	     89.37632176	    -27.06235725	     28.42319081	     61.29404648	     34.02914001	      0.00000000	      0.00000000	     89.72972054	    -20.02706106	     30.81773750	     77.36799325	     35.10882333	      0.00000000	      0.00000000
